<svg id="bola" xmlns="http://www.w3.org/2000/svg" viewBox="0 0 695.58058 596.2836"><title>bola</title><g id="triangulos_grupo"><g id="triangulos"><polygon points="261.383 163.689 166.383 324.903 334.567 316.688 261.383 163.689" fill="#f5cdaf"/><path d="M165.93259,325.1752l95.4737-162.017.2026.4233,73.3457,153.3379-.3755.0185Zm95.4278-160.9545L166.834,324.6303l167.34521-8.1738Z" fill="#fff"/><polygon points="334.567 316.688 426.625 182.114 261.383 163.689 334.567 316.688" fill="#fff696"/><path d="M334.52829,317.187l-.187-.3916-73.3779-153.4043.4477.0498,165.6558,18.4712-.2353.3432ZM261.8032,163.9877l72.80229,152.2012,91.5786-133.8725Z" fill="#fff"/><path d="M403.3062,125.6953c.17479.1274.35249.2548.52729.3823l-.1562-.3848C403.5532,125.6943,403.4302,125.6938,403.3062,125.6953Z" fill="#e5e6e7"/><path d="M420.20659,166.3325l-16.3731-40.2549c-.1748-.1275-.3525-.2549-.52729-.3823.124-.0015.247-.001.37109-.0025l-18.7344-46.063-47.6983,32.4497-4.414,3.003-9.7451,6.6299L281.855,149.7622l-20.4717,13.9272,3.4785.3877,36.628,4.084,5.5478.6186,119.5879,13.3345Z" fill="#72abd1"/><path d="M284.25589,147.8266q-2.34525,1.88745-4.6861,3.793l43.8897-29.8594c-.2495-.0322-.4985-.0625-.7481-.0957Z" fill="#fff"/><path d="M260.68359,163.8627l3.9258.4375c.1675-.1499.3374-.2963.5054-.4462l-3.0318-.3379,17.4868-11.8965q2.34165-1.905,4.6861-3.793l-23.0132,15.6563Z" fill="#fff"/><path d="M306.77439,169.0019c.1724-.1489.3467-.2949.5181-.4448l-5.583-.6226c-.146.1529-.2959.3008-.4424.4531Z" fill="#fff"/><path d="M264.60939,164.3002l36.6577,4.0874c.1465-.1523.2964-.3002.4424-.4531l-36.5947-4.0805C264.94679,164.0039,264.77689,164.1503,264.60939,164.3002Z" fill="#fff"/><path d="M426.23589,181.8193l-118.9434-13.2622c-.1714.1499-.3457.2959-.5181.4448L426.5982,182.3627l.417.0464-6.47271-15.9145c-.2236-.1074-.44729-.2183-.6709-.3237Z" fill="#fff"/><path d="M403.40869,125.6948l.043.1059q.38085.27765.7666.5557l-.2715-.6665C403.76709,125.6918,403.58739,125.6933,403.40869,125.6948Z" fill="#fff"/><path d="M419.87159,166.1709c.22361.1054.4473.2163.6709.3237l-16.3242-40.1382q-.38535-.27765-.7666-.5557Z" fill="#fff"/><path d="M337.34179,112.3159c-.0683-.1553-.1318-.3101-.2041-.4658l-4.4184,3.0058c.0786.1504.1552.3008.2211.4541Z" fill="#fff"/><path d="M323.45949,121.7602l9.4809-6.4502c-.0659-.1533-.1425-.3037-.2211-.4541l-10.0079,6.8086C322.961,121.6977,323.21,121.728,323.45949,121.7602Z" fill="#fff"/><path d="M403.40869,125.6948c.1787-.0015.3584-.003.5381-.0049l-18.7725-46.1543-.1162-.2866-47.9204,32.6011c.0723.1557.1358.3105.2041.4658l47.4859-32.3052Z" fill="#fff"/><polygon points="225.686 91.217 228.489 96.908 260.336 161.562 261.383 163.688 281.864 149.755 323.084 121.712 332.83 115.083 337.244 112.079 384.943 79.63 225.686 91.217" fill="#fbdadf"/><path d="M228.81639,97.0073c-.2187-.0655-.4355-.1338-.6548-.1988l31.9898,64.9439c.1245-.1255.2441-.2564.3691-.3818Z" fill="#fff"/><path d="M261.28609,164.0566l18.2935-12.4453q2.34225-1.905,4.6875-3.7935l-22.7866,15.5015-.96-1.9487c-.125.1254-.2446.2563-.3691.3818l1.00781,2.0459Z" fill="#fff"/><path d="M284.26709,147.8178q-2.346,1.88745-4.6875,3.7935l43.8789-29.8511c-.2495-.0327-.4985-.0625-.748-.0957Z" fill="#fff"/><path d="M337.34179,112.3154c-.0688-.1553-.1323-.3101-.20459-.4653l-4.41791,3.0053c.0781.1504.1552.3013.2207.4546Z" fill="#fff"/><path d="M323.45849,121.7602,332.94,115.31c-.0655-.1533-.1426-.3042-.2207-.4546l-10.0088,6.8091C322.96,121.6977,323.209,121.7275,323.45849,121.7602Z" fill="#fff"/><path d="M225.66749,90.9672l-.3701.0269,2.8642,5.8144c.2193.065.4361.1333.6548.1988l-2.7427-5.5684,157.959-11.4922L337.1372,111.8501c.07229.1552.13579.31.20459.4653L385.853,79.3129Z" fill="#fff"/><polygon points="384.943 79.63 334.567 70.421 225.686 91.217 384.943 79.63" fill="#d4b8b2"/><path d="M225.63869,90.9711l.0649.4952,161.2149-11.7295-52.3067-9.562-.0459-.0083Zm157.3286-11.4482L229.958,90.6552l104.6099-19.98Z" fill="#fff"/><path d="M467.0142,184.7382,504.855,187.145C492.94479,181.1528,480.44779,177.8281,467.0142,184.7382Z" fill="#d4d5d6"/><path d="M403.30709,125.6962l-.0224-.0166.0068.0166Z" fill="#d4d5d6"/><path d="M507.94779,187.5922,384.94289,79.6298l18.3418,46.0498c.0078.0054,23.334,56.4288,23.3408,56.4346Z" fill="#8c6076"/><path d="M403.66359,125.9545c-.1182-.0859-.2383-.1723-.3555-.2583-.0957.0005-.1904.0015-.2851.0025l15.956,40.06c.2197.1021.4395.1993.65921.3028Z" fill="#fff"/><path d="M403.56009,125.6938c-.084.0005-.168.0015-.252.0024.1172.086.2373.1724.3555.2583Z" fill="#fff"/><path d="M425.937,181.875l-6.29879-15.8135c-.21971-.1035-.43951-.2007-.65921-.3028l6.5518,16.4478.0586.147,40.9814,2.6069c.2969-.1572.5918-.2974.8867-.4443Z" fill="#fff"/><path d="M504.29249,186.8588l-36.835-2.3427c-.2949.1469-.5898.2871-.8867.4443l38.8467,2.4707C505.04249,187.2397,504.66849,187.0454,504.29249,186.8588Z" fill="#fff"/><path d="M507.94779,187.5922l-71.0889-62.5879c-.2451.0069-.4893.0137-.7344.0201l70.3936,61.976-2.2256-.1416c.376.1866.75.3809,1.125.5723Z" fill="#fff"/><path d="M403.56009,125.6938,385.562,80.5078l50.5625,44.5166c.2451-.0064.4893-.0132.7344-.0201l-52.5352-46.2524,18.5821,46.6528c.1318.0967.2695.1944.4023.2915C403.39209,125.6953,403.47609,125.6943,403.56009,125.6938Z" fill="#fff"/><path d="M403.30809,125.6962c-.1328-.0971-.2705-.1948-.4023-.2915l.1172.294C403.11769,125.6977,403.21239,125.6967,403.30809,125.6962Z" fill="#fff"/><polygon points="473.511 123.992 466.274 110.288 384.943 79.63 436.374 125.017 506.945 187.296 473.511 123.992" fill="#ee8782"/><path d="M473.76809,123.9423c-.169.0371-.33789.0752-.5127.0996l32.8301,62.1626-69.3448-61.1967c-.2441.0063-.4892.0132-.7334.02l71.79691,63.3603Z" fill="#fff"/><path d="M436.74069,125.0078l-50.6093-44.6631,79.96581,30.144,7.15819,13.5532c.17481-.0244.3437-.0625.5127-.0996l-7.2735-13.771-.0439-.0839L383.75439,78.915l52.2529,46.1128C436.25149,125.021,436.49659,125.0141,436.74069,125.0078Z" fill="#fff"/><polygon points="477.474 121.451 466.274 110.288 473.558 123.983 507.233 187.296 533.718 177.509 477.474 121.451" fill="#ef546c"/><path d="M465.272,108.9365l8.0293,15.0967c.1748-.0259.3447-.0616.5137-.1001l-6.5391-12.2935,10.0615,10.0283c.1006-.1377.1846-.2871.2725-.4341Z" fill="#fff"/><path d="M534.17138,177.6079l-56.56149-56.3741c-.0879.147-.1719.2964-.2725.4341l55.92781,55.7417-25.91411,9.5767L473.815,123.9331c-.169.0385-.3389.0742-.5137.1001l33.8135,63.5732Z" fill="#fff"/><polygon points="555.005 212.052 533.718 177.509 507.233 187.296 555.005 212.052" fill="#b8878a"/><path d="M555.69188,212.6894l-49.07619-25.4316,27.208-10.0547Zm-47.84179-25.3545,46.46879,24.0801-20.7061-33.6006Z" fill="#fff"/><polygon points="426.625 182.114 518.749 329.507 334.567 316.688 426.625 182.114" fill="#ef546c"/><path d="M519.2202,329.7905l-.48921-.0342-184.6167-12.8496.2461-.3604,92.2749-134.8886.2021.3242ZM335.01949,316.4692l183.2574,12.7549-91.6612-146.6533Z" fill="#fff"/><polygon points="518.749 329.54 412.233 486.691 334.567 316.688 518.749 329.54" fill="#008dc7"/><path d="M412.19,487.1997l-.1846-.4053-77.8408-170.3848,185.0341,12.9112-.2431.3593Zm-77.2207-170.2334,77.3066,169.2158,106.0225-156.4238Z" fill="#fff"/><polygon points="334.567 316.872 256.778 463.66 166.383 324.903 334.567 316.872" fill="#e5d8cd"/><path d="M256.79979,464.1518l-.2314-.3555-90.6323-139.122.4355-.0215L334.9932,316.602l-.20561.3877Zm-89.9692-139.0205,89.9253,138.0361,77.3847-146.0244Z" fill="#fff"/><polygon points="166.383 324.903 256.778 463.66 153.717 469.417 166.383 324.903" fill="#dbcfb1"/><path d="M153.44239,469.6831l.0254-.2871,12.7295-145.2364.3955.6065L257.2232,463.8852l-.43121.0244Zm13.127-144.0371L153.9912,469.1518l102.34129-5.7178Z" fill="#fff"/><polygon points="153.717 469.417 256.778 463.66 293.616 554.05 153.717 469.417" fill="#c2a47e"/><path d="M294.13229,554.6547l-141.2368-85.4414.8072-.0459,103.2392-5.7675.0674.165Zm-139.5942-85.0332,138.562,83.8243-36.4863-89.5264Z" fill="#fff"/><polygon points="216.464 529.869 153.717 469.417 293.616 554.05 216.464 529.869" fill="#8c6076"/><path d="M295.51709,554.9077l-79.2266-24.8594-64.3574-62.002Zm-78.9224-25.2598,75.1206,23.5449-136.2148-82.4043Z" fill="#fff"/><polygon points="124.34 433.141 88.656 324.903 153.717 469.417 124.34 433.141" fill="#fff9bd"/><path d="M154.73679,471.0747,124.103,433.2192,88.419,324.9809l.4653-.1807ZM124.5635,433.019l28.13329,34.7412L90.3897,329.3618Z" fill="#fff"/><polygon points="334.567 559.808 293.616 554.05 441.586 541.959 334.567 559.808" fill="#7d7f81"/><path d="M334.57029,560.061l-.03809-.0059-43.17961-6.0703,150.2133-12.2744.0616.4961Zm-38.6904-5.9453,38.6836,5.4394,101.0952-16.8603Z" fill="#fff"/><polygon points="256.778 463.659 412.233 486.691 293.616 554.05 256.778 463.659" fill="#ae908d"/><path d="M293.4922,554.4086l-37.11131-91.0615.4336.0645,156.1733,23.1386-.6318.3584Zm-36.31741-90.4384,36.5655,89.7216L411.478,486.8315Z" fill="#fff"/><polygon points="412.233 486.691 441.586 541.959 293.616 554.05 412.233 486.691" fill="#865b75"/><path d="M292.50879,554.392l.9839-.5595,118.8408-67.4864.1201.2276,29.5323,55.6035-.3789.0313Zm119.6235-67.3564-117.4087,66.6729L441.187,541.7417Z" fill="#fff"/><polygon points="533.718 453.296 441.586 541.959 412.233 486.974 533.718 453.296" fill="#94a49c"/><path d="M441.522,542.3686l-.1563-.291-29.5-55.2608.3008-.0839L534.603,452.7915l-.7109.6845Zm-28.9219-55.2373,29.0508,54.4189,91.1826-87.749Z" fill="#fff"/><polygon points="88.656 324.903 166.383 324.903 153.717 469.417 88.656 324.903" fill="#f9f0e5"/><path d="M153.88229,470.394,88.2695,324.6528h78.38679l-.024.2715ZM89.043,325.1528l64.50829,143.2881,12.5591-143.2881Z" fill="#fff"/><polygon points="260.335 161.562 228.489 96.908 225.686 91.217 222.318 95.13 132.606 199.387 257.209 164.846 261.383 163.689 260.335 161.562" fill="#ead0a2"/><path d="M225.74269,90.767l-3.6738,4.2696a.29239.29239,0,0,0,.19431.0781c.10739.0293.21239.0615.31929.0913l3.0459-3.5395,2.5327,5.142c.2193.065.43611.1333.6553.1988l-2.9067-5.9009Z" fill="#fff"/><path d="M228.81639,97.0073c-.21919-.0655-.436-.1338-.6553-.1988l31.9898,64.9444c.1245-.1255.2441-.2564.3691-.3814Z" fill="#fff"/><path d="M133.3325,198.9262l89.25-103.7202c-.1069-.0298-.2119-.062-.31929-.0913a.29239.29239,0,0,1-.19431-.0781L132.417,199.2241l-.5366.624,125.01849-34.6563c.2081-.2294.4112-.4633.6211-.6909Z" fill="#fff"/><path d="M260.52,161.3715c-.125.125-.2446.2559-.3691.3814l.875,1.7764-3.5059.9716c-.2099.2276-.413.4615-.6211.6909l4.8418-1.3422Z" fill="#fff"/><polygon points="88.656 324.903 132.606 199.387 166.383 324.903 88.656 324.903" fill="#d7ecdc"/><path d="M166.70949,325.1528H88.3037l.1167-.333,44.2173-126.2783Zm-77.70069-.5h77.04829L132.5752,200.2329Z" fill="#fff"/><polygon points="88.656 324.903 114.569 218.963 132.606 199.385 88.656 324.903" fill="#e7d5c7"/><path d="M88.8921,324.9858l-.4785-.1426,25.9282-106.0019.0435-.0474,18.8569-20.4678Zm25.9048-105.9004L90.124,319.9545l41.8467-119.5102Z" fill="#fff"/><path d="M222.31789,95.1303c-.0186-.0049-.0361-.0107-.05469-.0156a.30343.30343,0,0,1-.25-.1382L127.52,191.7202l-12.9506,27.2431,18.0371-19.5761Z" fill="#f8efe0"/><path d="M222.0132,94.9765a.30343.30343,0,0,0,.25.1382c.01859.0049.03609.0107.05469.0156l3.3677-3.9135Z" fill="#f7f7f8"/><path d="M222.58249,95.206c-.1069-.0298-.2119-.062-.31929-.0913-.18951,0-.30661-.1445-.35941-.3843l-94.56249,96.815-13.706,28.8007,19.1606-20.7959ZM115.5034,217.5805l12.2246-25.7153L220.32769,97.06,132.4224,199.2177Z" fill="#fff"/><path d="M225.50689,91.0419l-3.6031,3.6885c.0528.2398.1699.3843.35941.3843.10739.0293.21239.0615.31929.0913l3.2925-3.8262Z" fill="#fff"/><polygon points="132.606 199.387 261.383 163.689 166.383 324.903 132.606 199.387" fill="#fff9bd"/><path d="M166.29639,325.5424l-.1543-.5742L132.3008,199.2124l.2388-.066,129.37349-35.8632-.3145.5332ZM132.9121,199.562l33.5581,124.7011,94.38329-160.1674Z" fill="#fff"/><polygon points="334.606 316.872 412.233 486.691 256.778 463.66 334.606 316.872" fill="#faad4b"/><path d="M412.65189,487.0053l-.4561-.0674-155.8047-23.083.166-.3125,78.0655-147.2353.2109.4619Zm-155.4873-23.541L411.814,486.3764l-77.2246-168.9385Z" fill="#fff"/><polygon points="518.749 330.116 533.718 453.296 412.233 486.691 518.749 330.116" fill="#b83b68"/><path d="M411.64409,487.1118l.3818-.5616,106.8906-157.1259.0801.6611,14.99609,123.3945-.208.0577Zm106.9365-156.3047L412.82179,486.27l120.62209-33.1573Z" fill="#fff"/><polygon points="518.749 329.507 583.809 329.507 533.718 453.296 518.749 329.507" fill="#c0a28b"/><path d="M533.58638,454.2885,518.46629,329.2573H584.1802l-.13972.3437ZM519.03079,329.7573l14.81929,122.5469L583.438,329.7573Z" fill="#fff"/><polygon points="426.625 182.114 507.233 187.296 518.749 330.116 426.625 182.114" fill="#50a3a8"/><path d="M519.08059,331.1225l-.544-.875-92.3798-148.414,81.3076,5.227.0176.2158ZM427.09429,182.395l91.3222,146.7138-11.415-141.5766Z" fill="#fff"/><polygon points="518.749 329.507 583.809 329.507 507.233 187.296 518.749 329.507" fill="#ee8364"/><path d="M584.228,329.7573H518.51809L506.8872,186.1274Zm-65.249-.5H583.3902l-75.81161-140.792Z" fill="#fff"/><polygon points="583.809 329.507 555.005 212.052 507.233 187.296 583.809 329.507" fill="#97807c"/><path d="M584.51908,331.353l-.9297-1.7276-76.961-142.9238,48.59281,25.1807.02738.1103ZM507.83739,187.8911l75.26169,139.7705-28.3095-115.4395Z" fill="#fff"/></g></g><g id="lineas"><path d="M692.65478,333.8081l.4668-.5293-.2686-.1807.1885-.0898-.2724.0322-.17-.1143.0782-.2011-.8897-.3458-128.0039-86.3598-.4824-.3257.0967.5742c.0166.104.0439.2232.0713.3438.0302.1328.0615.2671.0771.3808l.0156.1109,124.0186,83.6382L398.6812,218.3359,591.397,121.9941l-.1494-.3008.2148-.2583L449.61769,2.8271l-.1914-.1602-.0508.0606-.02929-.0732-223.563,88.04.00879.0308L69.5322,90.269l-.0942-.0366-.0142.0361h-.0092l.0024.0181-.1523.3906h-.064l.0557.0215-.1817.4653.2407.0938L114.958,359.0542,6.1323,413.4585,91.582,334.4672l.1089-.1005-.0366-.1446c-.0459-.1826-.0874-.3652-.1221-.5498l-.0835-.4443L3.2427,414.767l-.5103.0606.0767.6338-.1499.1103L136.086,597.6879l-.0215.043.2846.2334.066-.0488.5297.2783.1612-.3066,180.17969-40.0205,1.4257-.3165-2.895-.3505-175.0473,38.8515L496.3032,427.0688l89.57618,70.2998-127.209,28.2129-.0674.0146-1.331,1.2579,129.85449-28.7373.1416-.0313.03612.0234.02348-.0371.0429-.0088-.0097-.0429ZM497.31109,426.5903l193.69529-92.0615L586.896,496.896ZM589.4282,121.0371l-121.164-9.2622-.98831-.0752.834.5351c.3066.1968.65431.3936,1.0058.5899l.0479.0268,119.96089,9.1611-191.70109,95.834-50.0733-19.4829L449.57959,4.0986ZM6.5381,414.3745l108.5283-54.2559,3.6157,40.8818Zm109.3687-55.794L70.3941,91.9194,294.9732,269.0629ZM313.23,261.0537l-7.8462,14.9096-8.5522-6.7119ZM248.8862,385.4721l56.82429-107.9814,111.9453,87.8554ZM315.562,258.7705l31.3194-59.5157,49.3349,19.1953Zm-1.5337.7666-18.0664,9.0317L72.9761,92.6821,345.94289,198.8896Zm-9.1176,17.3256-57.23,108.754L119.6758,400.8823l-3.6475-41.2442,179.814-89.8921Zm9.85251-16.5756,82.71-41.3477L690.21628,332.8413,419.06109,365.1782l-112.877-88.5869ZM3.981,415.685l114.79-13.6894,17.1372,193.7597Zm243.13429-28.9941L136.9395,596.0571,119.7642,401.8784ZM137.94969,596.2836l110.3716-209.7373,170.4478-20.3261,76.6552,60.1591ZM690.07278,333.8657,496.43209,425.9008l-76.2578-59.8486ZM225.86529,90.977l.0566.1958,2.98631-.5757L447.00539,4.6508l-77.3301,71.6817-.3652.3379,1.2275.226L447.853,5.2324,346.41159,197.9985,71.8902,91.187l153.24019.5566.1504.0005.0708-.1323a1.26645,1.26645,0,0,1,.1987-.2403,2.01645,2.01645,0,0,0,.2197-.2558Z" fill="#fff"/><path d="M593.439,121.6586a3.21,3.21,0,1,1-3.21-3.2109A3.21,3.21,0,0,1,593.439,121.6586Z" fill="#fff"/><path d="M452.50729,3.2109A3.21,3.21,0,1,1,449.29739,0,3.21,3.21,0,0,1,452.50729,3.2109Z" fill="#fff"/><path d="M72.9483,90.767a3.21,3.21,0,1,1-3.21-3.2109A3.21007,3.21007,0,0,1,72.9483,90.767Z" fill="#fff"/><path d="M6.4199,415.478A3.21,3.21,0,1,1,3.21,412.267,3.21,3.21,0,0,1,6.4199,415.478Z" fill="#fff"/><path d="M139.77439,597.4956a3.20995,3.20995,0,1,1-3.20989-3.211A3.21,3.21,0,0,1,139.77439,597.4956Z" fill="#fff"/><path d="M590.229,497.6284a3.21,3.21,0,1,1-3.2099-3.211A3.21,3.21,0,0,1,590.229,497.6284Z" fill="#fff"/><path d="M695.58058,333.3266a3.21,3.21,0,1,1-3.21-3.2109A3.21,3.21,0,0,1,695.58058,333.3266Z" fill="#fff"/></g></svg>